<svg width="117" height="35" viewBox="0 0 117 35" fill="none" xmlns="http://www.w3.org/2000/svg">
<g clip-path="url(#clip0_276_151)">
<path d="M101.699 10.4736C103.345 10.4737 104.783 10.8066 106.011 11.4727C107.267 12.1389 108.23 13.0132 108.9 14.0957V10.8066H116.059V34.0381H108.9V30.749C108.202 31.8315 107.225 32.706 105.969 33.3721C104.741 34.038 103.304 34.3711 101.657 34.3711C99.7588 34.3711 98.028 33.8857 96.4648 32.9141C94.9018 31.9149 93.6603 30.513 92.7393 28.709C91.846 26.8773 91.3995 24.7677 91.3994 22.3809C91.3994 19.9939 91.846 17.8979 92.7393 16.0938C93.6603 14.2898 94.9019 12.9021 96.4648 11.9307C98.028 10.9593 99.7728 10.4736 101.699 10.4736ZM7.65918 13.9287C8.38486 12.9019 9.37592 12.0833 10.6318 11.4727C11.8877 10.8621 13.2974 10.5567 14.8604 10.5566C17.5399 10.5566 19.6897 11.4453 21.3086 13.2217C22.9273 14.9703 23.7363 17.3851 23.7363 20.4658V34.0381H16.6191V21.4229C16.6191 19.8686 16.2146 18.6612 15.4053 17.8008C14.5958 16.9405 13.5072 16.5098 12.1396 16.5098C10.7722 16.5098 9.68346 16.9405 8.87402 17.8008C8.06459 18.6613 7.65921 19.8685 7.65918 21.4229V34.0381H0.5V3.22949H7.65918V13.9287ZM35.8711 34.0381H28.7119V10.8066H35.8711V34.0381ZM48.2188 20.2568L55.2949 10.8066H64.1289L54.416 22.4639L64.2129 34.0381H55.3369L48.2188 24.2959V34.0381H41.0596V3.22949H48.2188V20.2568ZM74.1006 20.2568L81.1768 10.8066H90.0107L80.2969 22.4639L90.0938 34.0381H81.2178L74.1006 24.2959V34.0381H66.9414V3.22949H74.1006V20.2568ZM103.792 16.6768C102.368 16.6768 101.154 17.1901 100.149 18.2168C99.1728 19.216 98.6836 20.6046 98.6836 22.3809C98.6837 24.1571 99.1729 25.5722 100.149 26.627C101.154 27.6538 102.368 28.168 103.792 28.168C105.215 28.168 106.416 27.6538 107.393 26.627C108.397 25.6 108.9 24.1982 108.9 22.4219C108.9 20.6456 108.397 19.2436 107.393 18.2168C106.416 17.1901 105.215 16.6768 103.792 16.6768Z" fill="white"/>
<mask id="mask0_276_151" style="mask-type:alpha" maskUnits="userSpaceOnUse" x="27" y="10" width="11" height="24">
<mask id="mask1_276_151" style="mask-type:alpha" maskUnits="userSpaceOnUse" x="27" y="10" width="11" height="24">
<rect x="27" y="10" width="11" height="24" fill="#D9D9D9"/>
</mask>
<g mask="url(#mask1_276_151)">
<path d="M14.8608 10.5566C17.5403 10.5566 19.6896 11.4448 21.3085 13.2212C22.9274 14.9698 23.7368 17.3845 23.7368 20.4654V34.0379H16.6192V21.423C16.6192 19.8686 16.2145 18.6613 15.4051 17.8008C14.5956 16.9404 13.507 16.5102 12.1393 16.5102C10.7717 16.5102 9.68309 16.9404 8.87363 17.8008C8.06417 18.6613 7.65945 19.8686 7.65945 21.423V34.0379H0.5V3.2291H7.65945V13.9289C8.38518 12.902 9.37605 12.0832 10.6321 11.4725C11.8881 10.8619 13.2977 10.5566 14.8608 10.5566ZM32.3126 8.39167C31.0565 8.39167 30.0238 8.03085 29.2143 7.30919C28.4328 6.55979 28.042 5.64385 28.042 4.56138C28.042 3.45115 28.4328 2.53521 29.2143 1.81356C30.0238 1.06415 31.0565 0.689453 32.3126 0.689453C33.5408 0.689453 34.5457 1.06415 35.3271 1.81356C36.1367 2.53521 36.5413 3.45115 36.5413 4.56138C36.5413 5.64385 36.1367 6.55979 35.3271 7.30919C34.5457 8.03085 33.5408 8.39167 32.3126 8.39167ZM35.8714 10.8064V34.0379H28.7119V10.8064H35.8714ZM55.3368 34.0379L48.2192 24.2957V34.0379H41.0598V3.2291H48.2192V20.2572L55.2949 10.8064H64.1291L54.4157 22.4638L64.2128 34.0379H55.3368ZM81.2182 34.0379L74.1006 24.2957V34.0379H66.9411V3.2291H74.1006V20.2572L81.1763 10.8064H90.0105L80.2971 22.4638L90.0942 34.0379H81.2182ZM91.399 22.3805C91.399 19.9935 91.8455 17.898 92.7388 16.0939C93.6599 14.2897 94.9019 12.902 96.465 11.9305C98.0282 10.9591 99.7726 10.4733 101.699 10.4733C103.345 10.4733 104.783 10.8064 106.011 11.4725C107.267 12.1387 108.23 13.013 108.9 14.0955V10.8064H116.059V34.0379H108.9V30.7489C108.202 31.8314 107.225 32.7057 105.969 33.3718C104.741 34.0379 103.304 34.371 101.657 34.371C99.7586 34.371 98.0282 33.8854 96.465 32.9138C94.9019 31.9146 93.6599 30.513 92.7388 28.7088C91.8455 26.877 91.399 24.7675 91.399 22.3805ZM108.9 22.4222C108.9 20.6458 108.397 19.2441 107.393 18.2172C106.416 17.1902 105.215 16.6767 103.792 16.6767C102.368 16.6767 101.154 17.1902 100.149 18.2172C99.1724 19.2164 98.684 20.6042 98.684 22.3805C98.684 24.1569 99.1724 25.5724 100.149 26.6272C101.154 27.6541 102.368 28.1676 103.792 28.1676C105.215 28.1676 106.416 27.6541 107.393 26.6272C108.397 25.6002 108.9 24.1985 108.9 22.4222Z" fill="white"/>
</g>
</mask>
<g mask="url(#mask0_276_151)">
<rect x="21.1807" y="13.3545" width="23" height="4" transform="rotate(-24 21.1807 13.3545)" fill="#FF3E3E"/>
<rect x="21.1807" y="21.3643" width="23" height="4" transform="rotate(-24 21.1807 21.3643)" fill="#FF3E3E"/>
<rect x="21.1807" y="29.373" width="23" height="4" transform="rotate(-24 21.1807 29.373)" fill="#FF3E3E"/>
<rect x="21.1807" y="37.3818" width="23" height="4" transform="rotate(-24 21.1807 37.3818)" fill="#FF3E3E"/>
</g>
<g clip-path="url(#clip1_276_151)">
<path d="M29 3L30.3611 3.8M30.3611 3.8L32.5 5M30.3611 3.8L29 4.2M30.3611 3.8L30.1667 2.4M36 7L34.6389 6.2M34.6389 6.2L32.5 5M34.6389 6.2L34.8333 7.6M34.6389 6.2L36 5.8M32.5 5L30.3611 6.2M32.5 5V2.2M32.5 5V7.6M32.5 5L34.6389 3.8M30.3611 6.2L29 7M30.3611 6.2L29 5.8M30.3611 6.2L30.1667 7.6M32.5 2.2V1M32.5 2.2L31.5278 1.8M32.5 2.2L33.4722 1.8M32.5 7.6V9M32.5 7.6L33.4722 8.2M32.5 7.6L31.5278 8.2M34.6389 3.8L36 3M34.6389 3.8L36 4.2M34.6389 3.8L34.8333 2.4" stroke="white" stroke-linecap="round" stroke-linejoin="round"/>
</g>
<mask id="mask2_276_151" style="mask-type:alpha" maskUnits="userSpaceOnUse" x="90" y="3" width="27" height="27">
<path d="M92.0625 3C92.6095 3 93.1341 3.2173 93.5209 3.60409C93.9077 3.99089 94.125 4.51549 94.125 5.0625C94.125 5.9425 94.4082 6.90225 94.9046 7.87987C95.2428 7.32572 95.6453 6.81343 96.1036 6.35363C96.4905 5.96671 97.0153 5.74934 97.5625 5.74934C97.8334 5.74934 98.1017 5.8027 98.352 5.90639C98.6024 6.01007 98.8298 6.16204 99.0214 6.35363C99.213 6.54521 99.3649 6.77265 99.4686 7.02296C99.5723 7.27328 99.6257 7.54156 99.6257 7.8125C99.6257 8.08344 99.5723 8.35172 99.4686 8.60204C99.3649 8.85235 99.213 9.07979 99.0214 9.27137C98.3504 9.94237 97.9764 10.8086 97.733 11.5924C98.0062 11.8555 98.2674 12.0924 98.5168 12.3032C99.9316 11.6095 101.487 11.2492 103.062 11.25C104.638 11.2494 106.192 11.6097 107.607 12.3032C107.854 12.0929 108.12 11.855 108.391 11.5924C108.147 10.8086 107.775 9.94237 107.104 9.27137C106.912 9.07979 106.76 8.85235 106.656 8.60204C106.553 8.35172 106.499 8.08344 106.499 7.8125C106.499 7.26532 106.717 6.74054 107.104 6.35363C107.491 5.96671 108.015 5.74934 108.562 5.74934C109.11 5.74934 109.634 5.96671 110.021 6.35363C110.503 6.83625 110.897 7.35737 111.22 7.87987C111.717 6.90225 112 5.94112 112 5.0625C112 4.51549 112.217 3.99089 112.604 3.60409C112.991 3.2173 113.515 3 114.062 3C114.61 3 115.134 3.2173 115.521 3.60409C115.908 3.99089 116.125 4.51549 116.125 5.0625C116.125 7.774 114.795 10.2737 113.391 12.1437C112.65 13.1279 111.822 14.0437 110.916 14.88C112.507 16.7431 113.379 19.1131 113.375 21.5625C113.375 24.2025 112.381 26.6143 110.749 28.4375C110.57 28.6465 110.352 28.8177 110.106 28.941C109.861 29.0644 109.593 29.1374 109.318 29.1558C109.044 29.1742 108.769 29.1376 108.509 29.0481C108.249 28.9587 108.01 28.8182 107.805 28.6349C107.6 28.4516 107.434 28.2292 107.317 27.9808C107.199 27.7324 107.132 27.463 107.12 27.1884C107.108 26.9139 107.151 26.6396 107.246 26.3819C107.342 26.1241 107.488 25.888 107.676 25.6875C108.472 24.7972 108.993 23.6954 109.177 22.5153C109.361 21.3351 109.199 20.127 108.711 19.0367C108.224 17.9464 107.431 17.0206 106.429 16.3709C105.426 15.7213 104.258 15.3756 103.063 15.3756C101.869 15.3756 100.7 15.7213 99.6977 16.3709C98.6955 17.0206 97.9026 17.9464 97.415 19.0367C96.9273 20.127 96.7656 21.3351 96.9494 22.5153C97.1332 23.6954 97.6546 24.7972 98.4507 25.6875C98.8117 26.0958 98.9964 26.6303 98.9645 27.1743C98.9326 27.7183 98.6867 28.2275 98.2805 28.5908C97.8744 28.9541 97.3409 29.1419 96.7968 29.1132C96.2526 29.0845 95.7419 28.8415 95.3762 28.4375C93.6828 26.5482 92.7475 24.0997 92.75 21.5625C92.7461 19.1133 93.6175 16.7433 95.2071 14.88C94.302 14.0437 93.4737 13.1279 92.7321 12.1437C91.331 10.2737 90 7.774 90 5.0625C90 4.51549 90.2173 3.99089 90.6041 3.60409C90.9909 3.2173 91.5155 3 92.0625 3Z" fill="#FFFEFE"/>
</mask>
<g mask="url(#mask2_276_151)">
<rect x="82.5625" y="-7.4375" width="44" height="22" fill="white"/>
</g>
</g>
<defs>
<clipPath id="clip0_276_151">
<rect width="117" height="35" fill="white"/>
</clipPath>
<clipPath id="clip1_276_151">
<rect width="9" height="9" fill="white" transform="translate(28)"/>
</clipPath>
</defs>
</svg>
