<svg width="117" height="35" viewBox="0 0 117 35" fill="none" xmlns="http://www.w3.org/2000/svg">
<g clip-path="url(#clip0_279_257)">
<path d="M7.65918 13.9287C8.38486 12.9019 9.37592 12.0833 10.6318 11.4727C11.8877 10.8621 13.2974 10.5567 14.8604 10.5566C17.5399 10.5566 19.6897 11.4453 21.3086 13.2217C22.9273 14.9703 23.7363 17.3851 23.7363 20.4658V34.0381H16.6191V21.4229C16.6191 19.8686 16.2146 18.6612 15.4053 17.8008C14.5958 16.9405 13.5072 16.5098 12.1396 16.5098C10.7722 16.5098 9.68346 16.9405 8.87402 17.8008C8.06459 18.6613 7.65921 19.8685 7.65918 21.4229V34.0381H0.5V3.22949H7.65918V13.9287Z" fill="#FE6E00"/>
<g clip-path="url(#clip1_279_257)">
<path d="M25.2054 9.49397C25.2054 9.49397 31.5997 6.30169 37.1314 8.35897C37.1314 8.35897 39.339 14.1448 42.5252 13.3923L41.8667 10.6044C41.8667 10.6044 43.0395 12.0093 44.6326 11.633C46.2256 11.2568 46.6459 9.47554 46.6459 9.47554L47.3044 12.2634C50.4905 11.5108 49.876 5.34869 49.876 5.34869C53.9026 1.03369 61.0495 1.02755 61.0495 1.02755C58.2396 3.37319 59.1583 9.04301 59.1583 9.04301C52.7861 10.5481 54.009 15.7256 54.009 15.7256C45.6674 16.014 47.0784 21.988 47.0784 21.988C47.0784 21.988 45.6674 16.014 38.0783 19.4885C38.0783 19.4885 36.8554 14.311 30.4831 15.8161C30.4831 15.8161 28.7678 10.3345 25.2054 9.49397Z" fill="black"/>
</g>
<g clip-path="url(#clip2_279_257)">
<path d="M53.7788 18.3066C53.7788 18.3066 58.8842 16.6241 62.7783 18.7552C62.7783 18.7552 63.794 23.301 66.247 23.0864L66.0593 20.9399C66.0593 20.9399 66.7798 22.1128 68.0063 22.0055C69.2329 21.8982 69.7388 20.618 69.7388 20.618L69.9266 22.7644C72.3796 22.5498 72.5905 17.8967 72.5905 17.8967C76.0554 15.1218 81.3755 15.8922 81.3755 15.8922C79.0297 17.3334 79.0987 21.653 79.0987 21.653C74.1926 22.0822 74.5413 26.0684 74.5413 26.0684C68.3014 25.3784 68.7038 29.9779 68.7038 29.9779C68.7038 29.9779 68.3014 25.3784 62.2761 27.1415C62.2761 27.1415 61.9274 23.1553 57.0213 23.5845C57.0213 23.5845 56.3391 19.3185 53.7788 18.3066Z" fill="black"/>
</g>
<g clip-path="url(#clip3_279_257)">
<path d="M77.7367 6.23162C77.7367 6.23162 81.1287 6.03957 83.1575 7.9776C83.1575 7.9776 83.0339 10.9189 84.5666 11.1891L84.803 9.84806C84.803 9.84806 85.0511 10.6819 85.8174 10.8171C86.5837 10.9522 87.102 10.2534 87.102 10.2534L86.8655 11.5945C88.3982 11.8647 89.2881 9.05859 89.2881 9.05859C91.8573 7.93131 94.9791 9.27191 94.9791 9.27191C93.3113 9.76799 92.6468 12.4163 92.6468 12.4163C89.5815 11.8759 89.1423 14.3664 89.1423 14.3664C85.4458 12.9245 84.9391 15.7982 84.9391 15.7982C84.9391 15.7982 85.4458 12.9245 81.4791 13.0152C81.4791 13.0152 81.9182 10.5246 78.8529 9.98412C78.8529 9.98412 79.1343 7.26819 77.7367 6.23162Z" fill="black"/>
</g>
<path fill-rule="evenodd" clip-rule="evenodd" d="M104.595 10.2611C104.882 10.2669 105.155 10.3867 105.354 10.5939C105.553 10.8012 105.662 11.0791 105.656 11.3664C105.65 11.6537 105.531 11.9269 105.323 12.126C105.116 12.325 104.838 12.4336 104.551 12.4278L104.503 12.453L104.42 12.5136C104.225 12.6822 104.057 12.8786 103.92 13.0966C103.792 13.2924 103.681 13.4982 103.586 13.7121C103.92 13.8522 104.231 14.0391 104.52 14.2621C104.665 14.3734 104.805 14.4946 104.939 14.6257C106.051 13.886 107.343 13.5178 108.67 13.808C110.468 14.1983 111.703 15.6525 112.352 17.3913C113.004 19.1411 113.132 21.3254 112.649 23.5429C112.166 25.7604 111.143 27.694 109.822 29.014C108.51 30.3258 106.782 31.1353 104.985 30.744C104.52 30.6422 104.074 30.4644 103.667 30.2178C103.046 30.5844 102.333 30.7663 101.612 30.7421C100.867 30.7125 100.192 30.458 99.6053 30.0563C99.1849 30.2672 98.7314 30.4118 98.2496 30.4761C96.427 30.7235 94.7689 29.7794 93.5652 28.3687C92.3532 26.9468 91.4855 24.9391 91.1813 22.6903C90.8762 20.4393 91.177 18.2731 91.9664 16.5807C92.751 14.8988 94.0971 13.5473 95.9207 13.301C97.267 13.1182 98.5255 13.5868 99.5737 14.4112C99.7193 14.2927 99.8682 14.183 100.02 14.082C100.431 13.8165 100.876 13.6173 101.351 13.5094C101.521 12.9524 101.798 12.3833 102.108 11.9078C102.37 11.4986 102.694 11.132 103.067 10.8205C103.434 10.5272 103.96 10.2359 104.595 10.2611ZM102.215 15.5874C101.906 15.5752 101.562 15.6666 101.203 15.8995C100.619 16.2786 100.02 17.0137 99.5466 18.091C99.0803 19.1566 98.7673 20.4853 98.7089 21.9532C98.6505 23.421 98.857 24.7714 99.2373 25.8697C99.6235 26.98 100.163 27.7604 100.714 28.1857C101.053 28.4474 101.385 28.5647 101.698 28.5772C102.011 28.5896 102.352 28.4991 102.71 28.265C103.293 27.886 103.893 27.1509 104.366 26.0736C104.833 25.008 105.145 23.6793 105.204 22.2114C105.262 20.7436 105.056 19.3931 104.675 18.2949C104.289 17.1845 103.75 16.4031 103.199 15.9789C102.86 15.7172 102.523 15.5997 102.215 15.5874ZM96.2116 15.4474C95.3668 15.5623 94.5253 16.2206 93.9303 17.4958C93.3412 18.7603 93.0705 20.4973 93.3277 22.3984C93.585 24.2994 94.3095 25.9014 95.2138 26.9619C96.0704 27.9674 96.9904 28.39 97.7988 28.344L98.0057 28.323C97.67 27.774 97.3965 27.1893 97.1903 26.5797C96.7127 25.2022 96.4758 23.5795 96.5439 21.8671C96.612 20.1546 96.977 18.5558 97.5635 17.2207C97.7389 16.8213 97.9408 16.4342 98.168 16.0618C97.4943 15.5526 96.8187 15.3653 96.2116 15.4474ZM106.21 16.3816C106.406 16.7613 106.576 17.166 106.722 17.5838C107.2 18.9623 107.437 20.5861 107.369 22.2975C107.301 24.01 106.936 25.6088 106.349 26.9439C106.094 27.5344 105.775 28.0954 105.398 28.6169L105.445 28.6275C106.278 28.8092 107.294 28.4777 108.29 27.483C109.276 26.4965 110.125 24.9561 110.533 23.0825C110.94 21.2079 110.808 19.4538 110.321 18.1476C109.828 16.8291 109.043 16.1061 108.209 15.9244C107.611 15.7944 106.922 15.9275 106.21 16.3816Z" fill="#DB6600"/>
<path d="M97.8307 14.5894L95.2327 14.4861L93.8821 15.7334L92.4798 18.2797L92.3765 20.8777L92.2215 24.7746L93.9265 27.7047L97.2418 29.3977L100.64 29.0124L103.238 29.1157L105.836 29.2191L108.995 28.3038L111.446 25.5391L111.601 21.6422L111.684 19.5638L110.218 17.1637L109.521 15.0543L107.183 14.9613L104.814 15.6477L103.806 14.827L101.208 14.7237L98.8388 15.4101L97.8307 14.5894Z" fill="#DB6600"/>
<path d="M100.058 30.5501L98.759 30.4984L97.0754 29.9441C97.2449 29.0725 97.636 27.3313 97.8438 27.3396C98.0517 27.3479 104.152 27.9374 107.176 28.2311L106.314 30.2785L105.015 30.2268L103.955 30.7051L102.916 30.6637L101.897 30.1028L100.058 30.5501Z" fill="#DB6600"/>
<path d="M98.2766 27.3568C98.2766 27.3568 94.6752 24.4447 93.9675 23.5477C93.7111 23.2227 93.5466 23.04 93.441 22.939L93.2523 22.8371C93.2523 22.8371 93.2553 22.7613 93.441 22.939L96.8914 24.8008L97.4314 23.6854L99.6131 24.909L100.153 23.7936L100.85 24.9582L101.867 24.3165L101.795 26.1326L100.751 27.4552L100.063 26.0637L99.5138 27.406L97.845 25.7481L98.2766 27.3568Z" fill="black"/>
<path d="M105.204 27.6321C105.204 27.6321 109.025 25.0151 109.802 24.1771C110.084 23.8735 110.262 23.7044 110.375 23.6122L110.572 23.5256C110.572 23.5256 110.575 23.4498 110.375 23.6122L106.788 25.1941L106.338 24.0394L104.066 25.0858L103.617 23.9311L102.829 25.0366L101.867 24.3163L101.794 26.1323L102.73 27.5337L103.526 26.2012L103.967 27.5829L105.762 26.0627L105.204 27.6321Z" fill="black"/>
<path d="M100.747 21.0381L97.2634 17.1852C94.759 17.0211 94.5223 19.6933 94.717 21.05L100.747 21.0381Z" fill="black"/>
<path d="M103.266 21.1526L107.155 17.4834C109.739 17.5198 109.763 20.2814 109.452 21.6577L103.266 21.1526Z" fill="black"/>
</g>
<defs>
<clipPath id="clip0_279_257">
<rect width="117" height="35" fill="white"/>
</clipPath>
<clipPath id="clip1_279_257">
<rect width="39.2858" height="39.2858" fill="white" transform="translate(21 -2.96875) rotate(-13.2898)"/>
</clipPath>
<clipPath id="clip2_279_257">
<rect width="29.5489" height="29.5489" fill="white" transform="translate(52 8.5752) rotate(-5)"/>
</clipPath>
<clipPath id="clip3_279_257">
<rect width="18.6755" height="18.6755" fill="white" transform="translate(78.2432) rotate(10)"/>
</clipPath>
</defs>
</svg>
