<svg width="117" height="35" viewBox="0 0 117 35" fill="none" xmlns="http://www.w3.org/2000/svg">
<g clip-path="url(#clip0_280_301)">
<path d="M7.65918 13.9287C8.38486 12.9019 9.37592 12.0833 10.6318 11.4727C11.8877 10.8621 13.2974 10.5567 14.8604 10.5566C17.5399 10.5566 19.6897 11.4453 21.3086 13.2217C22.9273 14.9703 23.7363 17.3851 23.7363 20.4658V34.0381H16.6191V21.4229C16.6191 19.8686 16.2146 18.6612 15.4053 17.8008C14.5958 16.9405 13.5072 16.5098 12.1396 16.5098C10.7722 16.5098 9.68346 16.9405 8.87402 17.8008C8.06459 18.6613 7.65921 19.8685 7.65918 21.4229V34.0381H0.5V3.22949H7.65918V13.9287ZM48.2188 20.2568L55.2949 10.8066H64.1289L54.416 22.4639L64.2129 34.0381H55.3369L48.2188 24.2959V34.0381H41.0596V3.22949H48.2188V20.2568ZM74.1006 20.2568L81.1768 10.8066H90.0107L80.2969 22.4639L90.0938 34.0381H81.2178L74.1006 24.2959V34.0381H66.9414V3.22949H74.1006V20.2568Z" fill="white"/>
<mask id="mask0_280_301" style="mask-type:alpha" maskUnits="userSpaceOnUse" x="0" y="0" width="117" height="35">
<path d="M14.8608 10.5566C17.5403 10.5566 19.6896 11.4448 21.3085 13.2212C22.9274 14.9698 23.7368 17.3845 23.7368 20.4654V34.0379H16.6192V21.423C16.6192 19.8686 16.2145 18.6613 15.4051 17.8008C14.5956 16.9404 13.507 16.5102 12.1393 16.5102C10.7717 16.5102 9.68309 16.9404 8.87363 17.8008C8.06417 18.6613 7.65945 19.8686 7.65945 21.423V34.0379H0.5V3.2291H7.65945V13.9289C8.38518 12.902 9.37605 12.0832 10.6321 11.4725C11.8881 10.8619 13.2977 10.5566 14.8608 10.5566ZM32.3126 8.39167C31.0565 8.39167 30.0238 8.03085 29.2143 7.30919C28.4328 6.55979 28.042 5.64385 28.042 4.56138C28.042 3.45115 28.4328 2.53521 29.2143 1.81356C30.0238 1.06415 31.0565 0.689453 32.3126 0.689453C33.5408 0.689453 34.5457 1.06415 35.3271 1.81356C36.1367 2.53521 36.5413 3.45115 36.5413 4.56138C36.5413 5.64385 36.1367 6.55979 35.3271 7.30919C34.5457 8.03085 33.5408 8.39167 32.3126 8.39167ZM35.8714 10.8064V34.0379H28.7119V10.8064H35.8714ZM55.3368 34.0379L48.2192 24.2957V34.0379H41.0598V3.2291H48.2192V20.2572L55.2949 10.8064H64.1291L54.4157 22.4638L64.2128 34.0379H55.3368ZM81.2182 34.0379L74.1006 24.2957V34.0379H66.9411V3.2291H74.1006V20.2572L81.1763 10.8064H90.0105L80.2971 22.4638L90.0942 34.0379H81.2182ZM91.399 22.3805C91.399 19.9935 91.8455 17.898 92.7388 16.0939C93.6599 14.2897 94.9019 12.902 96.465 11.9305C98.0282 10.9591 99.7726 10.4733 101.699 10.4733C103.345 10.4733 104.783 10.8064 106.011 11.4725C107.267 12.1387 108.23 13.013 108.9 14.0955V10.8064H116.059V34.0379H108.9V30.7489C108.202 31.8314 107.225 32.7057 105.969 33.3718C104.741 34.0379 103.304 34.371 101.657 34.371C99.7586 34.371 98.0282 33.8854 96.465 32.9138C94.9019 31.9146 93.6599 30.513 92.7388 28.7088C91.8455 26.877 91.399 24.7675 91.399 22.3805ZM108.9 22.4222C108.9 20.6458 108.397 19.2441 107.393 18.2172C106.416 17.1902 105.215 16.6767 103.792 16.6767C102.368 16.6767 101.154 17.1902 100.149 18.2172C99.1724 19.2164 98.684 20.6042 98.684 22.3805C98.684 24.1569 99.1724 25.5724 100.149 26.6272C101.154 27.6541 102.368 28.1676 103.792 28.1676C105.215 28.1676 106.416 27.6541 107.393 26.6272C108.397 25.6002 108.9 24.1985 108.9 22.4222Z" fill="white"/>
</mask>
<g mask="url(#mask0_280_301)">
</g>
<path d="M111.332 34.125L106.895 26.4225C106.895 23.6113 105.157 21.8075 103.044 21.8075C101.582 21.8075 100.314 22.62 99.6641 23.8225C100.2 23.5137 100.834 23.3512 101.5 23.3512C103.613 23.3512 105.335 25.0737 105.335 27.1862C105.335 29.315 103.629 31.0538 101.5 31.0538H106.863V34.125H93.0341C92.6441 34.125 92.2378 33.9787 91.9453 33.67C91.6575 33.3807 91.496 32.9893 91.496 32.5812C91.496 32.1732 91.6575 31.7818 91.9453 31.4925L92.7578 30.68C92.2053 30.4362 91.7503 30.0625 91.2953 29.6725C90.9378 30.485 90.1253 31.0538 89.1828 31.0538C88.5687 31.0538 87.9797 30.8098 87.5454 30.3755C87.1112 29.9413 86.8672 29.3523 86.8672 28.7381C86.8672 28.124 87.1112 27.535 87.5454 27.1007C87.9797 26.6665 88.5687 26.4225 89.1828 26.4225L89.9466 26.5525V23.3512C89.9444 22.3391 90.1422 21.3366 90.5285 20.4011C90.9148 19.4656 91.4821 18.6157 92.1978 17.9C92.9135 17.1843 93.7634 16.617 94.6989 16.2307C95.6344 15.8444 96.637 15.6466 97.6491 15.6488H97.6816C101.127 15.665 103.808 17.0137 103.808 14.885C103.808 13.3737 104.133 12.7725 104.685 11.9275C103.499 11.375 102.15 11.0337 100.737 11.0337C99.8753 11.0337 99.1928 10.3513 99.1928 9.49C99.1928 8.79125 99.6478 8.20625 100.282 8.01125L99.1928 7.94625C98.3478 7.94625 97.6491 7.26375 97.6491 6.41875C97.6491 5.5575 98.3478 4.875 99.1928 4.875H100.737C104.149 4.875 107.139 6.74375 108.748 9.50625L109.203 9.49C110.357 9.49 111.429 9.86375 112.307 10.4812L113.038 11.0987C116.564 14.2675 116.125 16.4125 116.125 16.4287C116.125 18.5087 114.403 20.215 112.307 20.215L111.51 20.1338V20.2638C111.51 22.0675 110.73 23.6763 109.512 24.8138L114.89 34.125H111.332ZM111.51 12.5775C110.649 12.5775 109.967 13.26 109.967 14.105C109.967 14.9663 110.649 15.6488 111.51 15.6488C112.355 15.6488 113.054 14.9663 113.054 14.105C113.054 13.26 112.355 12.5775 111.51 12.5775Z" fill="white"/>
<path d="M34.3582 8.66667C34.2624 8.54167 34.1457 8.43333 34.0374 8.325C33.7582 8.075 33.4416 7.89583 33.1749 7.63333C32.5541 7.025 32.4166 6.02083 32.8124 5.25C32.4166 5.34583 32.0707 5.5625 31.7749 5.8C30.6957 6.66667 30.2707 8.19583 30.7791 9.50833C30.7957 9.55 30.8124 9.59167 30.8124 9.64583C30.8124 9.7375 30.7499 9.82083 30.6666 9.85417C30.5707 9.89583 30.4707 9.87083 30.3916 9.80417C30.3679 9.78436 30.3481 9.76034 30.3332 9.73333C29.8624 9.1375 29.7874 8.28333 30.1041 7.6C29.4082 8.16667 29.0291 9.125 29.0832 10.0292C29.1082 10.2375 29.1332 10.4458 29.2041 10.6542C29.2624 10.9042 29.3749 11.1542 29.4999 11.375C29.9499 12.0958 30.7291 12.6125 31.5666 12.7167C32.4582 12.8292 33.4124 12.6667 34.0957 12.05C34.8582 11.3583 35.1249 10.25 34.7332 9.3L34.6791 9.19167C34.5916 9 34.3582 8.66667 34.3582 8.66667ZM33.0416 11.2917C32.9249 11.3917 32.7332 11.5 32.5832 11.5417C32.1166 11.7083 31.6499 11.475 31.3749 11.2C31.8707 11.0833 32.1666 10.7167 32.2541 10.3458C32.3249 10.0125 32.1916 9.7375 32.1374 9.41667C32.0874 9.10833 32.0957 8.84583 32.2082 8.55833C32.2874 8.71667 32.3707 8.875 32.4707 9C32.7916 9.41667 33.2957 9.6 33.4041 10.1667C33.4207 10.225 33.4291 10.2833 33.4291 10.3458C33.4416 10.6875 33.2916 11.0625 33.0416 11.2917Z" fill="#FEA102"/>
<path d="M33.4287 9.00014L31.643 7.92871L31.2859 10.4287L30.9287 11.8573H32.0001L33.7859 11.5001V10.4287L33.4287 9.00014Z" fill="#FEA102"/>
<rect x="29" y="14" width="6" height="20" fill="#FEA102"/>
</g>
<defs>
<clipPath id="clip0_280_301">
<rect width="117" height="35" fill="white"/>
</clipPath>
</defs>
</svg>
