<svg width="117" height="35" viewBox="0 0 117 35" fill="none" xmlns="http://www.w3.org/2000/svg">
<g clip-path="url(#clip0_282_382)">
<mask id="mask0_282_382" style="mask-type:alpha" maskUnits="userSpaceOnUse" x="0" y="0" width="117" height="35">
<path d="M14.8608 10.5566C17.5403 10.5566 19.6896 11.4448 21.3085 13.2212C22.9274 14.9698 23.7368 17.3845 23.7368 20.4654V34.0379H16.6192V21.423C16.6192 19.8686 16.2145 18.6613 15.4051 17.8008C14.5956 16.9404 13.507 16.5102 12.1393 16.5102C10.7717 16.5102 9.68309 16.9404 8.87363 17.8008C8.06417 18.6613 7.65945 19.8686 7.65945 21.423V34.0379H0.5V3.2291H7.65945V13.9289C8.38518 12.902 9.37605 12.0832 10.6321 11.4725C11.8881 10.8619 13.2977 10.5566 14.8608 10.5566ZM32.3126 8.39167C31.0565 8.39167 30.0238 8.03085 29.2143 7.30919C28.4328 6.55979 28.042 5.64385 28.042 4.56138C28.042 3.45115 28.4328 2.53521 29.2143 1.81356C30.0238 1.06415 31.0565 0.689453 32.3126 0.689453C33.5408 0.689453 34.5457 1.06415 35.3271 1.81356C36.1367 2.53521 36.5413 3.45115 36.5413 4.56138C36.5413 5.64385 36.1367 6.55979 35.3271 7.30919C34.5457 8.03085 33.5408 8.39167 32.3126 8.39167ZM35.8714 10.8064V34.0379H28.7119V10.8064H35.8714ZM55.3368 34.0379L48.2192 24.2957V34.0379H41.0598V3.2291H48.2192V20.2572L55.2949 10.8064H64.1291L54.4157 22.4638L64.2128 34.0379H55.3368ZM81.2182 34.0379L74.1006 24.2957V34.0379H66.9411V3.2291H74.1006V20.2572L81.1763 10.8064H90.0105L80.2971 22.4638L90.0942 34.0379H81.2182ZM91.399 22.3805C91.399 19.9935 91.8455 17.898 92.7388 16.0939C93.6599 14.2897 94.9019 12.902 96.465 11.9305C98.0282 10.9591 99.7726 10.4733 101.699 10.4733C103.345 10.4733 104.783 10.8064 106.011 11.4725C107.267 12.1387 108.23 13.013 108.9 14.0955V10.8064H116.059V34.0379H108.9V30.7489C108.202 31.8314 107.225 32.7057 105.969 33.3718C104.741 34.0379 103.304 34.371 101.657 34.371C99.7586 34.371 98.0282 33.8854 96.465 32.9138C94.9019 31.9146 93.6599 30.513 92.7388 28.7088C91.8455 26.877 91.399 24.7675 91.399 22.3805ZM108.9 22.4222C108.9 20.6458 108.397 19.2441 107.393 18.2172C106.416 17.1902 105.215 16.6767 103.792 16.6767C102.368 16.6767 101.154 17.1902 100.149 18.2172C99.1724 19.2164 98.684 20.6042 98.684 22.3805C98.684 24.1569 99.1724 25.5724 100.149 26.6272C101.154 27.6541 102.368 28.1676 103.792 28.1676C105.215 28.1676 106.416 27.6541 107.393 26.6272C108.397 25.6002 108.9 24.1985 108.9 22.4222Z" fill="white"/>
</mask>
<g mask="url(#mask0_282_382)">
<rect x="-11" y="-7" width="132" height="50" fill="#E2DA09"/>
</g>
<mask id="mask1_282_382" style="mask-type:alpha" maskUnits="userSpaceOnUse" x="0" y="0" width="117" height="35">
<path d="M14.8608 10.5566C17.5403 10.5566 19.6896 11.4448 21.3085 13.2212C22.9274 14.9698 23.7368 17.3845 23.7368 20.4654V34.0379H16.6192V21.423C16.6192 19.8686 16.2145 18.6613 15.4051 17.8008C14.5956 16.9404 13.507 16.5102 12.1393 16.5102C10.7717 16.5102 9.68309 16.9404 8.87363 17.8008C8.06417 18.6613 7.65945 19.8686 7.65945 21.423V34.0379H0.5V3.2291H7.65945V13.9289C8.38518 12.902 9.37605 12.0832 10.6321 11.4725C11.8881 10.8619 13.2977 10.5566 14.8608 10.5566ZM32.3126 8.39167C31.0565 8.39167 30.0238 8.03085 29.2143 7.30919C28.4328 6.55979 28.042 5.64385 28.042 4.56138C28.042 3.45115 28.4328 2.53521 29.2143 1.81356C30.0238 1.06415 31.0565 0.689453 32.3126 0.689453C33.5408 0.689453 34.5457 1.06415 35.3271 1.81356C36.1367 2.53521 36.5413 3.45115 36.5413 4.56138C36.5413 5.64385 36.1367 6.55979 35.3271 7.30919C34.5457 8.03085 33.5408 8.39167 32.3126 8.39167ZM35.8714 10.8064V34.0379H28.7119V10.8064H35.8714ZM55.3368 34.0379L48.2192 24.2957V34.0379H41.0598V3.2291H48.2192V20.2572L55.2949 10.8064H64.1291L54.4157 22.4638L64.2128 34.0379H55.3368ZM81.2182 34.0379L74.1006 24.2957V34.0379H66.9411V3.2291H74.1006V20.2572L81.1763 10.8064H90.0105L80.2971 22.4638L90.0942 34.0379H81.2182ZM91.399 22.3805C91.399 19.9935 91.8455 17.898 92.7388 16.0939C93.6599 14.2897 94.9019 12.902 96.465 11.9305C98.0282 10.9591 99.7726 10.4733 101.699 10.4733C103.345 10.4733 104.783 10.8064 106.011 11.4725C107.267 12.1387 108.23 13.013 108.9 14.0955V10.8064H116.059V34.0379H108.9V30.7489C108.202 31.8314 107.225 32.7057 105.969 33.3718C104.741 34.0379 103.304 34.371 101.657 34.371C99.7586 34.371 98.0282 33.8854 96.465 32.9138C94.9019 31.9146 93.6599 30.513 92.7388 28.7088C91.8455 26.877 91.399 24.7675 91.399 22.3805ZM108.9 22.4222C108.9 20.6458 108.397 19.2441 107.393 18.2172C106.416 17.1902 105.215 16.6767 103.792 16.6767C102.368 16.6767 101.154 17.1902 100.149 18.2172C99.1724 19.2164 98.684 20.6042 98.684 22.3805C98.684 24.1569 99.1724 25.5724 100.149 26.6272C101.154 27.6541 102.368 28.1676 103.792 28.1676C105.215 28.1676 106.416 27.6541 107.393 26.6272C108.397 25.6002 108.9 24.1985 108.9 22.4222Z" fill="white"/>
</mask>
<g mask="url(#mask1_282_382)">
<rect x="-13" y="-6" width="139" height="29" fill="#035BCF"/>
</g>
</g>
<defs>
<clipPath id="clip0_282_382">
<rect width="117" height="35" fill="white"/>
</clipPath>
</defs>
</svg>
